<!--?xml version="1.0" encoding="utf-8"?-->
<!-- Generator: Adobe Illustrator 23.1.0, SVG Export Plug-In . SVG Version: 6.00 Build 0)  -->
<svg version="1.1" id="Layer_1" xmlns="http://www.w3.org/2000/svg" xmlns:xlink="http://www.w3.org/1999/xlink" x="0px" y="0px" viewBox="0 0 594.9 83.1" style="" xml:space="preserve">
<style type="text/css">
	.st0{fill:none;stroke:#FFFFFF;stroke-miterlimit:10;}
</style>
<title>GEARSUT-Banner</title>
<path class="st0 YFjIJJZA_0" d="M2.4,50.8h10.8l4.2-15.7H6.6L9,26.2h10.9l5.8-21.6h10.6l-5.8,21.6h8.8L45,4.6h10.6l-5.8,21.6h10.9l-2.4,8.9
	H47.5l-4.2,15.7h10.9l-2.4,8.9H40.9l-5.7,21.4H24.5l5.7-21.4h-8.8l-5.8,21.4H5l5.8-21.4H0L2.4,50.8z M32.6,50.8l4.2-15.7h-8.8
	l-4.2,15.7L32.6,50.8z"></path>
<path class="st0 YFjIJJZA_1" d="M122.2,26.9c-1-5-4.4-9.3-9.1-11.3c-2.8-1.2-5.9-1.8-9-1.8c-6-0.1-11.8,2.5-15.6,7.2c-4.1,4.8-6.1,12-6.1,21.6
	s2.2,16.5,6.6,20.5c4.1,3.9,9.5,6,15.1,6c5.5,0,10-1.6,13.6-4.8c3.6-3.3,5.9-7.7,6.5-12.5h-18.2V38.8h32.8v42.3h-10.9l-1.7-9.8
	c-2.4,3.1-5.3,5.7-8.6,7.9c-4.3,2.7-9.7,4-16,4c-10.4,0-19-3.6-25.7-10.8c-7-7.3-10.4-17.2-10.4-29.8c0-12.7,3.5-23,10.5-30.7
	S92.3,0.3,103.8,0.3c10,0,18,2.5,24.1,7.6c5.9,4.7,9.6,11.5,10.4,19L122.2,26.9z"></path>
<path class="st0 YFjIJJZA_2" d="M211.8,16.3H171V33h37.4v13.7H171v20.3h42.8v14.2h-58.9V2.3h56.9V16.3z"></path>
<path class="st0 YFjIJJZA_3" d="M249.9,2.3h18.6l27.9,78.8h-17.9l-5.2-16.2h-29l-5.3,16.2h-17.2L249.9,2.3z M248.9,51.3H269l-10-31L248.9,51.3z
	"></path>
<path class="st0 YFjIJJZA_4" d="M357,4.3c2.9,1.2,5.4,3.1,7.4,5.5c1.7,2,3,4.2,4,6.6c1,2.6,1.5,5.5,1.5,8.3c0,3.8-1,7.6-2.8,11
	c-2,3.7-5.3,6.5-9.3,7.7c3.6,1.5,6.2,3.5,7.7,6.2c1.5,2.7,2.3,6.8,2.3,12.3v5.3c-0.1,2.4,0.1,4.9,0.4,7.3c0.3,1.9,1.4,3.5,3,4.5v2
	h-18.2c-0.5-1.8-0.9-3.1-1.1-4.2c-0.4-2.2-0.7-4.5-0.7-6.8l-0.1-7.3c-0.1-5-0.9-8.4-2.6-10c-1.7-1.6-4.8-2.5-9.4-2.5H323v30.9h-16.1
	V2.3h37.7C349.9,2.4,354.1,3.1,357,4.3z M323,16v21.2h17.7c3.5,0,6.2-0.4,7.9-1.3c3.1-1.5,4.7-4.5,4.7-8.9c0-4.8-1.5-8-4.5-9.6
	c-1.7-0.9-4.3-1.4-7.6-1.4L323,16z"></path>
<path class="st0 YFjIJJZA_5" d="M397.4,56.8c0.5,3.6,1.5,6.3,3,8.1c2.7,3.2,7.4,4.9,14,4.9c3.3,0.1,6.5-0.3,9.7-1.3c4.7-1.6,7-4.7,7-9.1
	c0-2.5-1.3-4.8-3.4-6c-2.3-1.4-6-2.6-11-3.7l-8.5-1.9c-8.4-1.8-14.1-3.8-17.3-6c-5.3-3.6-8-9.3-8-17c-0.1-6.7,2.7-13.2,7.8-17.6
	c5.2-4.7,12.8-7,22.9-7c8.4,0,15.6,2.2,21.5,6.6s9,10.8,9.3,19.2h-15.7c-0.3-4.7-2.4-8.1-6.4-10.1c-3.1-1.4-6.4-2.1-9.8-2
	c-4.4,0-7.8,0.9-10.4,2.6c-2.5,1.5-4,4.2-3.9,7.1c-0.1,2.7,1.4,5.2,3.8,6.3c1.6,0.9,5.1,2,10.5,3.3l13.8,3.3
	c6.1,1.4,10.6,3.3,13.6,5.7c4.7,3.7,7,9.1,7,16.1c0.1,6.9-3,13.6-8.4,17.9c-5.6,4.8-13.4,7.1-23.6,7.1c-10.4,0-18.5-2.3-24.5-7
	c-5.9-4.7-8.9-11.1-8.9-19.3L397.4,56.8z"></path>
<path class="st0 YFjIJJZA_6" d="M458.6,2.3h16.7v48.4c0,5.4,0.6,9.4,1.9,11.9c2,4.4,6.3,6.6,13,6.6c6.7,0,11-2.2,13-6.6
	c1.3-2.5,1.9-6.5,1.9-11.9V2.3h16.7v48.4c0,8.4-1.3,14.9-3.9,19.6c-4.8,8.6-14.1,12.8-27.7,12.8s-22.9-4.3-27.8-12.8
	c-2.6-4.7-3.9-11.2-3.9-19.6L458.6,2.3z"></path>
<path class="st0 YFjIJJZA_7" d="M594.9,2.3v14h-23.6v64.8h-16.6V16.3h-23.7v-14L594.9,2.3z"></path>
<style data-made-with="vivus-instant">.YFjIJJZA_0{stroke-dasharray:445 447;stroke-dashoffset:446;animation:YFjIJJZA_draw 2000ms linear 0ms forwards;}.YFjIJJZA_1{stroke-dasharray:479 481;stroke-dashoffset:480;animation:YFjIJJZA_draw 2000ms linear 142ms forwards;}.YFjIJJZA_2{stroke-dasharray:432 434;stroke-dashoffset:433;animation:YFjIJJZA_draw 2000ms linear 285ms forwards;}.YFjIJJZA_3{stroke-dasharray:370 372;stroke-dashoffset:371;animation:YFjIJJZA_draw 2000ms linear 428ms forwards;}.YFjIJJZA_4{stroke-dasharray:437 439;stroke-dashoffset:438;animation:YFjIJJZA_draw 2000ms linear 571ms forwards;}.YFjIJJZA_5{stroke-dasharray:435 437;stroke-dashoffset:436;animation:YFjIJJZA_draw 2000ms linear 714ms forwards;}.YFjIJJZA_6{stroke-dasharray:387 389;stroke-dashoffset:388;animation:YFjIJJZA_draw 2000ms linear 857ms forwards;}.YFjIJJZA_7{stroke-dasharray:286 288;stroke-dashoffset:287;animation:YFjIJJZA_draw 2000ms linear 1000ms forwards;}@keyframes YFjIJJZA_draw{100%{stroke-dashoffset:0;}}@keyframes YFjIJJZA_fade{0%{stroke-opacity:1;}94.44444444444444%{stroke-opacity:1;}100%{stroke-opacity:0;}}</style></svg>
