<svg id="Layer_1" data-name="Layer 1" xmlns="http://www.w3.org/2000/svg" viewBox="0 0 653 240">
  <defs>
    <style>
      .cls-1 {
        fill: none;
        stroke: #fff;
        stroke-miterlimit: 10;
      }

      .cls-2 {
        fill: #fff;
      }
    </style>
  </defs>
  <title>nameofme</title>
  <path class="cls-1" d="M112.85,117.61v-7.79h5.83V98.15H129.5v11.67h6.79v7.79H129.5v22.1c0,1.71.22,2.78.65,3.2s1.77.63,4,.63h1.06l1.09-.06v8.17l-5.18.19q-7.74.27-10.59-2.68-1.84-1.89-1.84-5.8V117.61Z"/>
  <path class="cls-1" d="M178.19,146.14q-5.3,6.54-16.07,6.54T146,146.14a25.93,25.93,0,0,1,0-31.42q5.29-6.63,16.08-6.63t16.07,6.63a25.93,25.93,0,0,1,0,31.42Zm-8.74-6q2.56-3.42,2.57-9.7t-2.57-9.67a9.73,9.73,0,0,0-14.76,0q-2.58,3.39-2.59,9.67t2.59,9.7a9.69,9.69,0,0,0,14.76,0Z"/>
  <path class="cls-2" d="M216.34,124.44a9.82,9.82,0,0,0-1.58-4.22,6.62,6.62,0,0,0-5.73-2.54q-5.55,0-7.58,5.49a22.73,22.73,0,0,0-1.08,7.73,20.91,20.91,0,0,0,1.08,7.39,7.32,7.32,0,0,0,7.39,5.22q3.84,0,5.46-2.08a10.34,10.34,0,0,0,2-5.37h11.16a18.2,18.2,0,0,1-3.61,9.44q-5.15,7.19-15.24,7.18t-14.87-6q-4.75-6-4.76-15.52,0-10.75,5.26-16.75t14.52-6q7.88,0,12.89,3.53t5.93,12.47Z"/>
  <path class="cls-2" d="M246.27,104.44H235.18V94.35h11.09Zm-11.09,5h11.09v41.83H235.18Z"/>
  <path class="cls-2" d="M268,151.26H257.09V94.7H268Z"/>
  <path class="cls-2" d="M278.84,109.43h11.09v41.83H278.84Z"/>
  <path class="cls-2" d="M297.41,141.28l28.91-36.57L279,105V95l62-.3v9.48l-29.28,37.1h29.36v10H297.41Z"/>
  <path class="cls-2" d="M359.42,109.43v25.21a13.32,13.32,0,0,0,.84,5.38q1.49,3.18,5.84,3.18,5.58,0,7.64-4.53a16.48,16.48,0,0,0,1.07-6.48V109.43H385.9v41.83H375.27v-5.91c-.1.13-.36.51-.77,1.15a7.58,7.58,0,0,1-1.45,1.69,15.15,15.15,0,0,1-5,3.14,16.61,16.61,0,0,1-5.6.85q-9.25,0-12.47-6.68-1.8-3.67-1.8-10.86V109.43Z"/>
  <path class="cls-2" d="M448.71,109.59a12.25,12.25,0,0,1,7.25,9.13,36.61,36.61,0,0,1,.39,6.18l-.08,26.36h-11.2V124.63a8.8,8.8,0,0,0-.77-3.92q-1.46-2.91-5.37-2.91-4.53,0-6.26,3.76a11.79,11.79,0,0,0-.88,4.8v24.9h-11v-24.9a14,14,0,0,0-.77-5.42q-1.38-3-5.41-3-4.68,0-6.29,3a11.7,11.7,0,0,0-.89,5.15v25.17H396.33V109.51H407v6.1A17.76,17.76,0,0,1,410.8,111a15.17,15.17,0,0,1,16-.35,12.28,12.28,0,0,1,3.61,5,13.87,13.87,0,0,1,5.33-5.41,16.29,16.29,0,0,1,7.52-1.73A14.5,14.5,0,0,1,448.71,109.59Z"/>
  <path class="cls-2" d="M483,125.82a17.57,17.57,0,0,0,4.36-1,3.29,3.29,0,0,0,2.36-3.11,3.67,3.67,0,0,0-1.81-3.55,11.43,11.43,0,0,0-5.31-1c-2.61,0-4.47.64-5.56,1.92a7.84,7.84,0,0,0-1.55,3.84H464.9a16,16,0,0,1,3.09-9q4.35-5.52,14.95-5.52a26.58,26.58,0,0,1,12.25,2.72q5.35,2.73,5.36,10.28v19.19c0,1.33,0,2.94.08,4.83a6,6,0,0,0,.65,2.92,4,4,0,0,0,1.61,1.27v1.61H491a11.33,11.33,0,0,1-.69-2.38c-.13-.74-.23-1.59-.31-2.53a22.8,22.8,0,0,1-5.25,4.18,15.92,15.92,0,0,1-8,2,13.83,13.83,0,0,1-9.43-3.24q-3.74-3.24-3.73-9.19,0-7.71,6-11.17,3.29-1.88,9.67-2.68Zm6.68,5.1a11.66,11.66,0,0,1-2.12,1.06,17.81,17.81,0,0,1-2.93.74l-2.49.47a16.08,16.08,0,0,0-5,1.49,5,5,0,0,0-2.58,4.64,4.85,4.85,0,0,0,1.57,4.05,6,6,0,0,0,3.84,1.25,11.47,11.47,0,0,0,6.61-2.07q3-2.07,3.13-7.56Z"/>
  <path class="cls-2" d="M545.82,114.46q4.7,6,4.69,15.35,0,9.75-4.63,16.15a16.8,16.8,0,0,1-21.29,4.34,16.72,16.72,0,0,1-4.09-4.3v5.26H509.72V94.78h10.94v20.1a16,16,0,0,1,4.59-4.45,13.74,13.74,0,0,1,7.57-1.92Q541.13,108.51,545.82,114.46Zm-9.14,25.48a15.53,15.53,0,0,0,2.36-9,20.2,20.2,0,0,0-1.16-7.37,8.09,8.09,0,0,0-8.13-5.52,8.2,8.2,0,0,0-8.24,5.41,20.23,20.23,0,0,0-1.16,7.44,15.48,15.48,0,0,0,2.4,8.9c1.6,2.36,4,3.53,7.31,3.53A7.59,7.59,0,0,0,536.68,139.94Z"/>
</svg>
